<svg width="16" height="16" viewBox="0 0 16 16" fill="none" xmlns="http://www.w3.org/2000/svg">
<g clip-path="url(#clip0_208_568)">
<path d="M9.22131 11.0455C9.359 11.1087 9.51411 11.1232 9.66111 11.0865C9.8081 11.0497 9.9382 10.964 10.03 10.8435L10.2666 10.5335C10.3908 10.3679 10.5519 10.2335 10.737 10.1409C10.9222 10.0484 11.1263 10.0002 11.3333 10.0002H13.3333C13.6869 10.0002 14.0261 10.1406 14.2761 10.3907C14.5262 10.6407 14.6666 10.9799 14.6666 11.3335V13.3335C14.6666 13.6871 14.5262 14.0263 14.2761 14.2763C14.0261 14.5264 13.6869 14.6668 13.3333 14.6668C10.1507 14.6668 7.09847 13.4025 4.84803 11.1521C2.5976 8.90167 1.33331 5.84943 1.33331 2.66683C1.33331 2.31321 1.47379 1.97407 1.72384 1.72402C1.97389 1.47397 2.31302 1.3335 2.66665 1.3335H4.66665C5.02027 1.3335 5.35941 1.47397 5.60945 1.72402C5.8595 1.97407 5.99998 2.31321 5.99998 2.66683V4.66683C5.99998 4.87382 5.95179 5.07797 5.85922 5.26311C5.76665 5.44825 5.63224 5.6093 5.46665 5.7335L5.15465 5.9675C5.03226 6.06095 4.94599 6.19389 4.91051 6.34373C4.87502 6.49357 4.8925 6.65108 4.95998 6.7895C5.8711 8.64007 7.3696 10.1367 9.22131 11.0455Z" stroke="#6C5CE7" stroke-linecap="round" stroke-linejoin="round"/>
</g>
<defs>
<clipPath id="clip0_208_568">
<rect width="16" height="16" fill="white"/>
</clipPath>
</defs>
</svg>
