<svg width="16" height="16" viewBox="0 0 16 16" fill="none" xmlns="http://www.w3.org/2000/svg">
<path d="M15.4677 3.6651C15.1483 3.3305 14.7072 3.13278 14.2053 3.13278H11.6806V3.10236C11.6806 2.72214 11.5285 2.35712 11.27 2.11377C11.0114 1.85522 10.6616 1.70312 10.2814 1.70312H5.71863C5.32319 1.70312 4.97338 1.85522 4.71483 2.11377C4.45627 2.37233 4.30418 2.72214 4.30418 3.10236V3.13278H1.79468C1.29278 3.13278 0.851711 3.3305 0.532319 3.6651C0.212928 3.98449 0 4.44077 0 4.92746V12.5016C0 13.0035 0.197719 13.4446 0.532319 13.764C0.851711 14.0834 1.30798 14.2963 1.79468 14.2963H14.2053C14.7072 14.2963 15.1483 14.0986 15.4677 13.764C15.7871 13.4446 16 12.9883 16 12.5016V4.92746C16 4.42556 15.8023 3.98449 15.4677 3.6651ZM15.2091 12.5016H15.1939C15.1939 12.7754 15.0875 13.0187 14.9049 13.2012C14.7224 13.3837 14.4791 13.4902 14.2053 13.4902H1.79468C1.52091 13.4902 1.27757 13.3837 1.09506 13.2012C0.912547 13.0187 0.806084 12.7754 0.806084 12.5016V4.92746C0.806084 4.6537 0.912547 4.41035 1.09506 4.22784C1.27757 4.04533 1.52091 3.93887 1.79468 3.93887H4.73004C4.95817 3.93887 5.14068 3.75636 5.14068 3.52822V3.08716C5.14068 2.91985 5.20152 2.76776 5.30798 2.6613C5.41445 2.55484 5.56654 2.494 5.73384 2.494H10.2814C10.4487 2.494 10.6008 2.55484 10.7072 2.6613C10.8137 2.76776 10.8745 2.91985 10.8745 3.08716V3.52822C10.8745 3.75636 11.057 3.93887 11.2852 3.93887H14.2205C14.4943 3.93887 14.7376 4.04533 14.9201 4.22784C15.1027 4.41035 15.2091 4.6537 15.2091 4.92746V12.5016Z" fill="#161616"/>
<path d="M7.99999 4.97266C6.96577 4.97266 6.0228 5.39851 5.3536 6.06771C4.66919 6.75212 4.25854 7.67988 4.25854 8.7141C4.25854 9.74832 4.6844 10.6913 5.3536 11.3605C6.03801 12.0449 6.96577 12.4555 7.99999 12.4555C9.03421 12.4555 9.97718 12.0297 10.6464 11.3605C11.3308 10.6761 11.7414 9.74832 11.7414 8.7141C11.7414 7.67988 11.3156 6.73691 10.6464 6.06771C9.97718 5.39851 9.03421 4.97266 7.99999 4.97266ZM10.0684 10.7978C9.53611 11.3149 8.80607 11.6495 7.99999 11.6495C7.19391 11.6495 6.46387 11.3149 5.93155 10.7978C5.39923 10.2654 5.07984 9.53539 5.07984 8.72931C5.07984 7.92323 5.41444 7.19319 5.93155 6.66087C6.46387 6.12855 7.19391 5.80916 7.99999 5.80916C8.80607 5.80916 9.53611 6.14376 10.0684 6.66087C10.6007 7.19319 10.9201 7.92323 10.9201 8.72931C10.9354 9.53539 10.6007 10.2654 10.0684 10.7978Z" fill="#161616"/>
<path d="M13.4144 6.44838C13.826 6.44838 14.1597 6.11472 14.1597 5.70313C14.1597 5.29154 13.826 4.95789 13.4144 4.95789C13.0028 4.95789 12.6692 5.29154 12.6692 5.70313C12.6692 6.11472 13.0028 6.44838 13.4144 6.44838Z" fill="#161616"/>
</svg>
