<svg width="20" height="20" viewBox="0 0 20 20" fill="none" xmlns="http://www.w3.org/2000/svg">
<path d="M6.66665 18.3334C7.12688 18.3334 7.49998 17.9603 7.49998 17.5001C7.49998 17.0398 7.12688 16.6667 6.66665 16.6667C6.20641 16.6667 5.83331 17.0398 5.83331 17.5001C5.83331 17.9603 6.20641 18.3334 6.66665 18.3334Z" stroke="#6E6B74" stroke-linecap="round" stroke-linejoin="round"/>
<path d="M15.8333 18.3334C16.2936 18.3334 16.6667 17.9603 16.6667 17.5001C16.6667 17.0398 16.2936 16.6667 15.8333 16.6667C15.3731 16.6667 15 17.0398 15 17.5001C15 17.9603 15.3731 18.3334 15.8333 18.3334Z" stroke="#6E6B74" stroke-linecap="round" stroke-linejoin="round"/>
<path d="M1.70831 1.70825H3.37498L5.59165 12.0583C5.67296 12.4373 5.88387 12.7761 6.18807 13.0165C6.49227 13.2568 6.87073 13.3835 7.25831 13.3749H15.4083C15.7876 13.3743 16.1554 13.2443 16.4508 13.0064C16.7463 12.7686 16.9518 12.437 17.0333 12.0666L18.4083 5.87492H4.26665" stroke="#6E6B74" stroke-linecap="round" stroke-linejoin="round"/>
</svg>
