<svg width="24" height="24" viewBox="0 0 24 24" fill="none" xmlns="http://www.w3.org/2000/svg">
<path d="M10.73 12.163C11.0882 12.4564 11.5369 12.6168 12 12.6168C12.463 12.6168 12.9118 12.4564 13.27 12.163L22.054 4.947C21.6825 4.49624 21.2163 4.13288 20.6884 3.88279C20.1606 3.63269 19.5841 3.50199 19 3.5H4.99998C4.41588 3.50199 3.8394 3.63269 3.31155 3.88279C2.7837 4.13288 2.31745 4.49624 1.94598 4.947L10.73 12.163Z" fill="#F44336"/>
<path d="M14.54 13.709C13.8233 14.2952 12.9259 14.6155 12 14.6155C11.0741 14.6155 10.1767 14.2952 9.46 13.709L1.07 6.81604C1.02684 7.04157 1.00342 7.27044 1 7.50004V16.5C1.00106 17.5606 1.42283 18.5774 2.17274 19.3273C2.92266 20.0772 3.93946 20.499 5 20.5H19C20.0605 20.499 21.0773 20.0772 21.8273 19.3273C22.5772 18.5774 22.9989 17.5606 23 16.5V7.50004C22.9966 7.27044 22.9732 7.04157 22.93 6.81604L14.54 13.709Z" fill="#F44336"/>
</svg>
