<svg width="56" height="32" viewBox="0 0 56 32" fill="none" xmlns="http://www.w3.org/2000/svg">
<mask id="path-1-inside-1_32_2390" fill="white">
<path d="M0 0H56V32H0V0Z"/>
</mask>
<path d="M56 0H55V32H56H57V0H56Z" fill="#C7C4D2" mask="url(#path-1-inside-1_32_2390)"/>
<path d="M38.2026 8.13794H17.7974C16.8047 8.13794 16 8.94264 16 9.93536V13.3793H40V9.93536C40 8.94264 39.1953 8.13794 38.2026 8.13794Z" fill="#FAB446"/>
<path d="M16 22.0647C16 23.0574 16.8047 23.8621 17.7974 23.8621H38.2026C39.1952 23.8621 40 23.0574 40 22.0647V18.6207H16V22.0647Z" fill="#73AF00"/>
<path d="M16 13.3793H40V18.6204H16V13.3793Z" fill="#F5F5F5"/>
<path d="M28 18.2241C26.7736 18.2241 25.7759 17.2264 25.7759 16C25.7759 14.7736 26.7736 13.7759 28 13.7759C29.2264 13.7759 30.2241 14.7736 30.2241 16C30.2241 17.2264 29.2264 18.2241 28 18.2241ZM28 14.1896C27.0017 14.1896 26.1896 15.0017 26.1896 16C26.1896 16.9983 27.0017 17.8104 28 17.8104C28.9983 17.8104 29.8104 16.9983 29.8104 16C29.8104 15.0017 28.9983 14.1896 28 14.1896Z" fill="#41479B"/>
<path d="M28 16.2521C28.1393 16.2521 28.2521 16.1392 28.2521 15.9999C28.2521 15.8607 28.1393 15.7478 28 15.7478C27.8608 15.7478 27.7479 15.8607 27.7479 15.9999C27.7479 16.1392 27.8608 16.2521 28 16.2521Z" fill="#41479B"/>
<path d="M28 16.0378L27.3592 16.1025L25.9828 16.0378V15.9621L27.3592 15.8975L28 15.9621V16.0378ZM28 16.0378L28.6408 16.1025L30.0172 16.0378V15.9621L28.6408 15.8975L28 15.9621V16.0378Z" fill="#41479B"/>
<path d="M27.9622 16L27.8975 15.3592L27.9622 13.9828H28.0378L28.1025 15.3592L28.0378 16H27.9622ZM27.9622 16L27.8975 16.6408L27.9622 18.0172H28.0378L28.1025 16.6408L28.0378 16H27.9622Z" fill="#41479B"/>
<path d="M27.9733 16.0267L27.4744 15.6194L26.5469 14.6004L26.6004 14.5469L27.6194 15.4744L28.0267 15.9733L27.9733 16.0267Z" fill="#41479B"/>
<path d="M27.9733 16.0267L28.3806 16.5255L29.3996 17.4531L29.4531 17.3996L28.5255 16.3806L28.0267 15.9733L27.9733 16.0267Z" fill="#41479B"/>
<path d="M27.9733 15.9733L28.3806 15.4744L29.3996 14.5469L29.4531 14.6004L28.5255 15.6194L28.0267 16.0267L27.9733 15.9733Z" fill="#41479B"/>
<path d="M27.9733 15.9733L27.4744 16.3806L26.5469 17.3996L26.6004 17.4531L27.6194 16.5255L28.0267 16.0267L27.9733 15.9733Z" fill="#41479B"/>
<path d="M28.0145 16.035L27.4472 16.34L26.1508 16.807L26.1219 16.7371L27.3688 16.1506L27.9855 15.9651L28.0145 16.035Z" fill="#41479B"/>
<path d="M28.0145 16.035L28.6312 15.8495L29.8781 15.263L29.8492 15.1931L28.5528 15.6601L27.9855 15.9651L28.0145 16.035Z" fill="#41479B"/>
<path d="M27.965 16.0145L27.6601 15.4472L27.1931 14.1508L27.263 14.1218L27.8495 15.3687L28.035 15.9855L27.965 16.0145Z" fill="#41479B"/>
<path d="M27.965 16.0144L28.1505 16.6312L28.737 17.8781L28.8069 17.8491L28.3399 16.5528L28.035 15.9855L27.965 16.0144Z" fill="#41479B"/>
<path d="M27.9855 16.035L27.3688 15.8495L26.1219 15.263L26.1508 15.1931L27.4472 15.6601L28.0145 15.9651L27.9855 16.035ZM27.9855 16.035L28.5528 16.34L29.8492 16.8069L29.8781 16.737L28.6312 16.1505L28.0145 15.9651L27.9855 16.035Z" fill="#41479B"/>
<path d="M27.965 15.9855L28.1505 15.3687L28.737 14.1218L28.8069 14.1508L28.3399 15.4472L28.035 16.0145L27.965 15.9855ZM27.965 15.9855L27.6601 16.5528L27.1931 17.8491L27.263 17.8781L27.8495 16.6312L28.035 16.0145L27.965 15.9855Z" fill="#41479B"/>
<path d="M28 16.3402C28.1879 16.3402 28.3401 16.1879 28.3401 16C28.3401 15.8122 28.1879 15.6599 28 15.6599C27.8122 15.6599 27.6599 15.8122 27.6599 16C27.6599 16.1879 27.8122 16.3402 28 16.3402Z" fill="#F5F5F5"/>
<path d="M28 16.2039C28.1126 16.2039 28.204 16.1126 28.204 16C28.204 15.8873 28.1126 15.796 28 15.796C27.8874 15.796 27.7961 15.8873 27.7961 16C27.7961 16.1126 27.8874 16.2039 28 16.2039Z" fill="#41479B"/>
</svg>
