<svg width="20" height="20" viewBox="0 0 20 20" fill="none" xmlns="http://www.w3.org/2000/svg">
<path d="M8.55664 17.5C8.70293 17.7533 8.91332 17.9637 9.16668 18.11C9.42003 18.2563 9.70743 18.3333 9.99997 18.3333C10.2925 18.3333 10.5799 18.2563 10.8333 18.11C11.0866 17.9637 11.297 17.7533 11.4433 17.5" stroke="#6E6B74" stroke-linecap="round" stroke-linejoin="round"/>
<path d="M2.71833 12.7717C2.60947 12.8911 2.53763 13.0394 2.51155 13.1988C2.48547 13.3582 2.50627 13.5218 2.57142 13.6696C2.63658 13.8174 2.74328 13.943 2.87855 14.0313C3.01381 14.1196 3.17182 14.1666 3.33333 14.1667H16.6667C16.8282 14.1668 16.9862 14.1199 17.1216 14.0318C17.2569 13.9437 17.3637 13.8182 17.4291 13.6705C17.4944 13.5228 17.5154 13.3593 17.4895 13.1999C17.4637 13.0405 17.392 12.892 17.2833 12.7726C16.175 11.6301 15 10.4159 15 6.66675C15 5.34067 14.4732 4.0689 13.5355 3.13121C12.5979 2.19353 11.3261 1.66675 10 1.66675C8.67392 1.66675 7.40215 2.19353 6.46447 3.13121C5.52679 4.0689 5 5.34067 5 6.66675C5 10.4159 3.82417 11.6301 2.71833 12.7717Z" stroke="#6E6B74" stroke-linecap="round" stroke-linejoin="round"/>
</svg>
