<svg width="100" height="100" viewBox="0 0 100 100" fill="none" xmlns="http://www.w3.org/2000/svg">
<path d="M85.8167 52.8H67.7333V35.7667C67.7333 34.7102 67.3136 33.697 66.5666 32.95C65.8196 32.203 64.8064 31.7833 63.75 31.7833H40.15V25.4667C40.15 20.0333 44.5667 15.6167 50 15.6167C55.4333 15.6167 59.85 20.0333 59.85 25.4667C59.85 26.3833 60.6 27.1333 61.5167 27.1333C62.4333 27.1333 63.1833 26.3833 63.1833 25.4667C63.1833 18.2 57.2667 12.2833 50 12.2833C42.7333 12.2833 36.8167 18.2 36.8167 25.4667V31.7833H36.25C35.1935 31.7833 34.1804 32.203 33.4333 32.95C32.6863 33.697 32.2666 34.7102 32.2666 35.7667V52.8H14.1833C10.95 52.8 8.33331 55.4333 8.33331 58.65V81.8833C8.33331 85.1 10.95 87.7333 14.1833 87.7333H85.8167C89.0333 87.7333 91.6667 85.1167 91.6667 81.8833V58.65C91.6667 55.4333 89.05 52.8 85.8167 52.8ZM35.6 35.7667C35.6 35.4 35.9 35.1167 36.25 35.1167H63.75C64.1167 35.1167 64.4 35.4167 64.4 35.7667V55.2667C64.4 55.6333 64.1 55.9167 63.75 55.9167H36.25C36.1646 55.9167 36.0801 55.8998 36.0012 55.8672C35.9224 55.8345 35.8507 55.7866 35.7904 55.7263C35.73 55.6659 35.6821 55.5943 35.6495 55.5154C35.6168 55.4365 35.6 55.352 35.6 55.2667V35.7667ZM88.3333 81.8833C88.3333 83.2667 87.2 84.4 85.8167 84.4H14.1833C12.8 84.4 11.6666 83.2667 11.6666 81.8833V58.65C11.6666 57.2667 12.8 56.1333 14.1833 56.1333H32.3666C32.5636 57.0167 33.0555 57.8067 33.7613 58.3732C34.4672 58.9397 35.3449 59.249 36.25 59.25H63.75C65.65 59.25 67.2333 57.9167 67.6333 56.1333H85.8167C87.2 56.1333 88.3333 57.2667 88.3333 58.65V81.8833Z" fill="#1E1B26"/>
<path d="M32.6666 68.5999H29.25L30.95 65.6499C31.4166 64.8499 31.1333 63.8333 30.3333 63.3666C29.5333 62.8999 28.5166 63.1833 28.05 63.9833L26.35 66.9333L24.65 63.9833C24.1833 63.1833 23.1666 62.9166 22.3666 63.3666C21.5666 63.8166 21.3 64.8499 21.75 65.6499L23.45 68.5999H20.0333C19.1166 68.5999 18.3666 69.3499 18.3666 70.2666C18.3666 71.1833 19.1166 71.9333 20.0333 71.9333H23.45L21.75 74.8833C21.6045 75.1373 21.5283 75.4251 21.5291 75.7178C21.5299 76.0105 21.6076 76.2979 21.7545 76.5511C21.9014 76.8044 22.1122 77.0145 22.3659 77.1606C22.6196 77.3066 22.9072 77.3834 23.2 77.3833C23.7833 77.3833 24.3333 77.0833 24.65 76.5499L26.35 73.5999L28.05 76.5499C28.3666 77.0833 28.9166 77.3833 29.5 77.3833C29.7833 77.3833 30.0666 77.3166 30.3333 77.1666C31.1333 76.6999 31.4 75.6833 30.95 74.8833L29.25 71.9333H32.6666C33.5833 71.9333 34.3333 71.1833 34.3333 70.2666C34.3333 69.3499 33.5833 68.5999 32.6666 68.5999ZM56.3 68.5999H52.8833L54.5833 65.6499C55.05 64.8499 54.7666 63.8333 53.9666 63.3666C53.1666 62.8999 52.15 63.1833 51.6833 63.9833L50 66.9333L48.3 63.9833C48.0769 63.6009 47.7122 63.3218 47.2849 63.2064C46.8575 63.0909 46.4019 63.1485 46.0166 63.3666C45.2166 63.8333 44.95 64.8499 45.4 65.6499L47.1 68.5999H43.6833C42.7666 68.5999 42.0166 69.3499 42.0166 70.2666C42.0166 71.1833 42.7666 71.9333 43.6833 71.9333H47.1L45.4 74.8833C45.2545 75.1373 45.1783 75.4251 45.1791 75.7178C45.1799 76.0105 45.2576 76.2979 45.4045 76.5511C45.5514 76.8044 45.7622 77.0145 46.0159 77.1606C46.2696 77.3066 46.5572 77.3834 46.85 77.3833C47.4333 77.3833 47.9833 77.0833 48.3 76.5499L50 73.5999L51.7 76.5499C52.0166 77.0833 52.5666 77.3833 53.15 77.3833C53.4333 77.3833 53.7166 77.3166 53.9833 77.1666C54.7833 76.6999 55.05 75.6833 54.6 74.8833L52.9 71.9333H56.3166C57.2333 71.9333 57.9833 71.1833 57.9833 70.2666C57.9833 69.3499 57.2166 68.5999 56.3 68.5999ZM79.9333 68.5999H76.5166L78.2166 65.6499C78.6833 64.8499 78.4 63.8333 77.6 63.3666C76.8 62.8999 75.7833 63.1833 75.3166 63.9833L73.6166 66.9333L71.9166 63.9833C71.6936 63.6009 71.3289 63.3218 70.9015 63.2064C70.4742 63.0909 70.0185 63.1485 69.6333 63.3666C68.8333 63.8333 68.5666 64.8499 69.0166 65.6499L70.7166 68.5999H67.3333C66.4166 68.5999 65.6666 69.3499 65.6666 70.2666C65.6666 71.1833 66.4166 71.9333 67.3333 71.9333H70.75L69.05 74.8833C68.9045 75.1373 68.8283 75.4251 68.8291 75.7178C68.8299 76.0105 68.9076 76.2979 69.0545 76.5511C69.2014 76.8044 69.4122 77.0145 69.6659 77.1606C69.9196 77.3066 70.2072 77.3834 70.5 77.3833C71.0833 77.3833 71.6333 77.0833 71.95 76.5499L73.65 73.5999L75.35 76.5499C75.6666 77.0833 76.2166 77.3833 76.8 77.3833C77.0833 77.3833 77.3666 77.3166 77.6333 77.1666C78.4333 76.6999 78.7 75.6833 78.25 74.8833L76.55 71.9333H79.9666C80.8833 71.9333 81.6333 71.1833 81.6333 70.2666C81.6333 69.3499 80.85 68.5999 79.9333 68.5999Z" fill="#1E1B26"/>
</svg>
