<svg width="24" height="24" viewBox="0 0 24 24" fill="none" xmlns="http://www.w3.org/2000/svg">
<path d="M11.562 3.26592C11.6052 3.18753 11.6686 3.12216 11.7456 3.07663C11.8227 3.0311 11.9105 3.00708 12 3.00708C12.0895 3.00708 12.1773 3.0311 12.2544 3.07663C12.3314 3.12216 12.3948 3.18753 12.438 3.26592L15.39 8.86992C15.4604 8.99969 15.5586 9.11225 15.6777 9.19954C15.7968 9.28683 15.9337 9.34668 16.0786 9.37478C16.2235 9.40289 16.3729 9.39856 16.5159 9.3621C16.659 9.32564 16.7922 9.25797 16.906 9.16392L21.183 5.49992C21.2651 5.43315 21.3663 5.39414 21.472 5.38853C21.5776 5.38291 21.6824 5.41097 21.7711 5.46867C21.8598 5.52637 21.9279 5.61073 21.9657 5.70961C22.0034 5.8085 22.0087 5.9168 21.981 6.01892L19.147 16.2649C19.0891 16.4746 18.9645 16.6597 18.792 16.7921C18.6195 16.9246 18.4085 16.9972 18.191 16.9989H5.81C5.59233 16.9974 5.38111 16.9249 5.20839 16.7924C5.03567 16.66 4.91089 16.4748 4.853 16.2649L2.02 6.01992C1.99225 5.9178 1.99762 5.8095 2.03534 5.71061C2.07306 5.61173 2.14118 5.52737 2.2299 5.46967C2.31862 5.41197 2.42335 5.38391 2.52904 5.38953C2.63472 5.39514 2.73589 5.43415 2.818 5.50092L7.094 9.16492C7.2078 9.25897 7.341 9.32664 7.48406 9.3631C7.62712 9.39956 7.77647 9.40389 7.9214 9.37578C8.06632 9.34768 8.20323 9.28783 8.32229 9.20054C8.44135 9.11325 8.5396 9.00069 8.61 8.87092L11.562 3.26592Z" stroke="#6C5CE7" stroke-linecap="round" stroke-linejoin="round"/>
<path d="M5 21H19" stroke="#6C5CE7" stroke-linecap="round" stroke-linejoin="round"/>
</svg>
